<svg xmlns="http://www.w3.org/2000/svg" version="1.1" xmlns:xlink="http://www.w3.org/1999/xlink" width="200" height="200"><svg xmlns="http://www.w3.org/2000/svg" version="1.1" xmlns:xlink="http://www.w3.org/1999/xlink" viewBox="0 0 200 200"><rect width="200" height="200" fill="url('#gradient')"></rect><defs><linearGradient id="SvgjsLinearGradient1001" gradientTransform="rotate(171 0.5 0.5)"><stop offset="0%" stop-color="#211e23"></stop><stop offset="100%" stop-color="#211e23"></stop></linearGradient></defs><g><g fill="#646464" transform="matrix(6.889296636085627,0,0,6.889296636085627,36.511378493658995,136.58466199239095)" stroke="#9d9d9d" stroke-width="0.05"><path d="M8.94 0L5.91-5.29L4.50-3.75L4.50 0L1.07 0L1.07-14.22L4.50-14.22L4.50-7.95L5.69-9.76L8.76-14.22L13.00-14.22L8.19-7.93L13.00 0L8.94 0ZM13.96-10.57L17.26-10.57L17.26 0.36Q17.25 2.24 16.18 3.25Q15.12 4.27 13.21 4.27L13.21 4.27Q12.39 4.27 11.66 4.10L11.66 4.10L11.66 1.61Q12.23 1.70 12.59 1.70L12.59 1.70Q13.96 1.70 13.96 0.34L13.96 0.34L13.96-10.57ZM13.71-13.29L13.71-13.29Q13.71-13.99 14.22-14.44Q14.73-14.89 15.54-14.89Q16.35-14.89 16.86-14.44Q17.36-13.99 17.36-13.29Q17.36-12.59 16.86-12.14Q16.35-11.69 15.54-11.69Q14.73-11.69 14.22-12.14Q13.71-12.59 13.71-13.29Z"></path></g></g></svg><style>@media (prefers-color-scheme: light) { :root { filter: none; } }
@media (prefers-color-scheme: dark) { :root { filter: none; } }
</style></svg>